<?xml version="1.0" encoding="utf-8"?>
<!-- Generator: Adobe Illustrator 26.3.1, SVG Export Plug-In . SVG Version: 6.00 Build 0)  -->
<svg version="1.1" id="Layer_1" xmlns="http://www.w3.org/2000/svg" xmlns:xlink="http://www.w3.org/1999/xlink" x="0px" y="0px"
	 viewBox="0 0 122.4 122.9" style="enable-background:new 0 0 122.4 122.9;" xml:space="preserve">
<style type="text/css">
	.st0{fill:#F38E5D;}
	.st1{fill:#58B1CE;}
	.st2{fill:#F18E5D;stroke:#000000;stroke-width:0.8913;stroke-miterlimit:10;}
	.st3{opacity:0.82;fill:#D6DAD4;stroke:#000000;stroke-width:2;stroke-miterlimit:10;}
	.st4{fill:#F1EEE8;}
</style>
<g>
	<path class="st0" d="M94.7,66.2c-1.8,0.5-3.8,1.1-6,1.7c0,0.1-0.1,0.3-0.1,0.4c-0.2,0.9-0.5,1.8-0.7,2.7c2.6-0.7,5-1.4,7-2
		c1.1-0.3,1.9-1.2,1.9-2C96.8,66.2,95.8,65.9,94.7,66.2z"/>
	<path class="st0" d="M27.6,76.2c0.8-0.8,1.5-1.7,2.2-2.7c2-2.7,2.7-5.1,2.6-7c-0.1-1.6-0.9-2.9-2.2-3.8c-1.3-0.9-3-1.4-5.1-1.3
		c-2.2,0-4.8,0.7-7.5,2c-1.3,0.7-2.7,1.5-3.9,2.6c-1.2,1-2.4,2.3-3.4,3.9c-0.5,0.8-0.2,1.6,0.8,1.8c1,0.1,2.2-0.4,2.7-1.2
		c0.7-1.2,1.6-2.1,2.5-2.8c0.9-0.7,1.7-1.3,2.6-1.8c1.8-0.9,3.5-1.4,5-1.4c1.3,0,2.3,0.3,3.1,0.8c0.8,0.6,1.3,1.4,1.4,2.4
		c0.1,1.3-0.5,3.1-1.9,5.1c-0.6,0.8-1.2,1.5-1.8,2.1c-0.6,0.6-1.2,1.1-1.8,1.5c-1.1,0.7-2.5,1.2-3.9,1.4c-1,0.1-1.9,0.1-2.7-0.1
		c-0.6-0.2-1.1-0.5-1.3-1c-0.2-0.4-0.1-1.1,0.3-1.9c0.4-0.9,1.2-1.8,2.1-2.5c0.5-0.4,1.1-0.7,1.5-0.9c0.4-0.1,0.7-0.1,1,0
		c0.4,0.1,0.8,0.5,1.2,1c0.4,0.6,1.5,0.7,2.6,0.2c1-0.5,1.5-1.5,1.2-2.2c-0.6-1-1.4-1.7-2.4-2c-1.2-0.4-2.6-0.3-3.9,0.1
		c-1.2,0.4-2.4,1.1-3.5,1.9c-1.4,1.1-2.7,2.6-3.4,4c-0.8,1.5-0.9,2.8-0.5,3.7c0.4,1.1,1.4,1.8,2.8,2.2c1.3,0.4,2.8,0.4,4.4,0.2
		c2.2-0.3,4.6-1.1,6.5-2.4C25.8,77.9,26.7,77.1,27.6,76.2z"/>
	<path class="st0" d="M93.7,59.1c-1.9-0.1-4-0.3-5.9-0.5c-0.4,1-0.7,2.1-1.1,3.1c1.8,0.2,3.7,0.3,5.4,0.5c2.1,0.1,3.8,0.3,4.5,0.5
		c0.8,0.3,2.1-0.1,2.8-0.9c0.7-0.8,0.6-1.7-0.3-2C98.1,59.4,96.1,59.3,93.7,59.1z"/>
	<path class="st0" d="M46.3,85.6l-21.6,0.6c1.3-0.7,2.5-1.6,3.8-2.5c0.5-0.4,1-0.8,1.5-1.2c5.8-0.1,11.5-0.6,17-1.3
		c0.1-1,0.2-2,0.3-3c-4.6,0.6-9.4,1-14.2,1.1c1.7-1.9,3.2-4.1,4.3-6.3c2.9,0.2,5.9,0,8.6-0.2c0.6,0,1.2-0.1,1.8-0.1
		c0.1-1,0.2-2,0.4-3c-0.4,0-0.7,0.1-1.1,0.1c-2.6,0.2-5.5,0.4-8.3,0.2c1-2.9,1.2-5.5,0.9-7.8c3.5-0.9,6.9-0.7,10.2-0.3
		c0.3-1.1,0.7-2.1,1.1-3.1c-3.8-0.4-7.6-0.5-12,0.7c-0.2-0.4-0.4-0.8-0.6-1.1c-0.5-0.9-1.1-1.7-1.9-2.3l15.9-0.5
		c0.5-1,1.1-2.1,1.8-3.1L27,53.3c-0.1,0-0.2,0-0.3,0c-4.8,0.4-9.7,2.5-14,5.8c-4.4,3.4-8.1,7.9-10,12.8C0.8,76.9,1,81.4,2.9,84.5
		c1.8,3.1,5.2,5,9.8,5.1c0.1,0,0.2,0,0.3,0l32.6-1C45.9,87.7,46.1,86.6,46.3,85.6z M6.6,82.6c-1.6-2.7-1.7-6.4-0.1-10.7
		c1.6-4.2,4.7-8.1,8.4-11c3.5-2.7,7.6-4.4,11.4-4.6c3.8-0.1,6.6,1.4,8.1,4C36,63,36.2,66.8,34.5,71c-1.6,4.2-4.7,8.1-8.4,11
		c-3.5,2.7-7.6,4.4-11.4,4.6C11,86.7,8.1,85.1,6.6,82.6z"/>
	<path class="st0" d="M111.2,50.8c-0.1,0-0.1,0-0.2,0l0,0l0,0l0,0l-20.7,0.6c-0.3,1-0.6,2-1,3.1l20.4-0.6c1.6,0.1,2.8,0.5,3.7,1.1
		c1,0.6,1.7,1.4,2.4,2.4c0.7,1.1,1.2,2.4,1.3,3.8c-1.1,0.3-2.2,0.4-3.3,0.4c-1.9,0-4-0.2-6.1-0.8c-0.9-0.2-2.2,0.3-2.8,1.1
		c-0.6,0.8-0.4,1.7,0.5,1.9c2.4,0.6,4.8,0.9,7.1,0.9c1.6,0,3.1-0.2,4.5-0.6c0,0.3-0.1,0.5-0.1,0.8c-0.3,1.6-0.7,3.2-1.4,4.8l-0.4,0
		c-3.9-0.2-10-0.6-14.8,0.8c-1.1,0.3-1.9,1.2-1.8,2c0.1,0.8,1,1.1,2.1,0.8c3.8-1.2,9.4-0.8,12.9-0.6l0.5,0c-0.3,0.5-0.7,1.1-1.1,1.6
		c-0.7,1-1.5,2-2.4,3c-1.5,0.1-3,0-4.8-0.2c-3.5-0.3-7.8-0.7-14.4,0.6c-1.1,0.2-2.1,1-2.2,1.9c-0.1,0.8,0.7,1.3,1.8,1.1
		c5.9-1.1,9.8-0.8,13.1-0.5c1.1,0.1,2.1,0.2,3.1,0.2c-0.5,0.3-0.9,0.7-1.4,1c-2.3,1.4-4.9,2.4-7.8,2.6l-17.2,0.5
		c-0.2,0.2-0.5,0.4-0.8,0.6c-0.1,0.6-0.1,1.3-0.2,1.9c0.2,0.2,0.5,0.4,0.6,0.6l16.6-0.5c0.2,0,0.3,0,0.5-0.1c3.7-0.4,7.1-1.7,10-3.5
		c3.7-2.3,6.6-5.4,8.8-8.5c0.8-1.1,1.5-2.3,2.1-3.5c0-0.1,0.1-0.1,0.1-0.2l0-0.1c1.2-2.3,2-4.7,2.4-7c0.1-0.9,0.2-1.8,0.2-2.6
		c0-0.1,0-0.1,0-0.2c0-2.3-0.5-4.4-1.7-6.1c-0.8-1.1-1.7-2.1-3-2.9C115,51.6,113.4,51,111.2,50.8z"/>
</g>
<path class="st1" d="M53.2,66.7l29.1-0.2c0.6,0,1,0.4,1,0.9l0.1,7.5c0,0.5-0.4,0.9-1,0.9C72.7,75.9,63,75.9,53.3,76
	c-0.6,0-1-0.4-1-0.9l-0.1-7.5C52.2,67.2,52.6,66.7,53.2,66.7z"/>
<path class="st2" d="M81.7,45.8"/>
<path class="st3" d="M449.8,201.6"/>
<g>
</g>
<g>
	<g>
		<path class="st4" d="M62,71.7c-0.3,0.1-0.7,0.1-1,0.2c-0.1,0.2-0.1,0.4-0.2,0.7c0,0.1,0,0.2-0.1,0.3c-0.3,0-0.6,0-0.9,0
			c0-0.2,0.1-0.3,0.1-0.5c0-0.2,0.3-1.2,0.4-1.4c0-0.1,0.1-0.3,0.1-0.4c-0.1,0-0.2,0-0.2,0c0-0.1,0-0.5,0.1-0.8
			c0.3-0.1,0.6-0.1,0.9-0.2c0.1,0,0.3,0,0.4-0.1c0.3,0,0.6-0.1,0.8-0.1c0,0.1,0,0.5,0,0.8c-0.3,0-0.6,0.1-0.8,0.1
			c-0.1,0-0.1,0-0.2,0c0,0,0,0.1-0.1,0.1c-0.1,0.1-0.1,0.3-0.2,0.4c0,0,0,0.1,0,0.1c0.1,0,0.1,0,0.2,0c0.2,0,0.3-0.1,0.5-0.1
			c0.1,0,0.2,0,0.2,0C62.1,71.1,62,71.4,62,71.7z"/>
		<path class="st4" d="M62.9,69.9c0,0,0-0.1,0-0.2c0.2,0,0.7-0.1,1-0.1c0,0.1-0.1,0.3-0.1,0.5c-0.1,0.3-0.2,0.7-0.3,1.1
			c-0.1,0.5-0.2,0.9-0.3,1.4c0,0.1,0,0.1,0,0.2c-0.3,0-0.7,0.1-1,0.1c0-0.2,0.1-0.3,0.1-0.5c0-0.2,0.1-0.3,0.1-0.5
			c0.1-0.4,0.2-0.9,0.3-1.3C62.8,70.3,62.8,70.1,62.9,69.9z"/>
		<path class="st4" d="M64.1,70.6c0-0.3,0-0.7,0-0.8c0,0,0.2,0,0.3,0c0.4-0.1,1.2-0.2,1.5-0.2c0.1,0,0.4-0.1,0.5,0
			c0,0.1,0,0.4-0.1,0.7c-0.1,0-0.4,0-0.5,0c-0.1,0-0.1,0-0.2,0c-0.1,0.2-0.2,0.6-0.2,0.8c0,0.1-0.2,0.8-0.3,1.1c0,0-0.1,0.6-0.1,0.6
			c-0.4,0.1-0.8,0.1-0.9,0.1c0,0,0-0.1,0.1-0.2c0.1-0.3,0.2-0.7,0.2-0.8c0.1-0.3,0.1-0.5,0.2-0.8c0-0.1,0.1-0.5,0.2-0.6
			C64.6,70.5,64.3,70.6,64.1,70.6z"/>
		<path class="st4" d="M67.4,71.6c-0.5,0.1-0.7,0.1-1.1,0.1c-0.2,0-0.3,0.1-0.5,0.1c0-0.2,0-0.5,0.1-0.7c0.2,0,0.4-0.1,0.6-0.1
			c0.3,0,0.6-0.1,0.9-0.1C67.4,71.1,67.4,71.4,67.4,71.6z"/>
		<path class="st4" d="M69.6,72.7c-0.2,0-0.3,0-0.5,0.1c-0.3,0-0.6,0.1-0.9,0.1c-0.2,0-0.3,0-0.4,0c-0.1,0-0.3,0-0.4,0
			c0-0.2,0.1-0.5,0.2-0.7c0.1-0.5,0.3-1,0.4-1.5c0.1-0.4,0.2-0.7,0.3-1.1c0.2,0,0.6-0.1,0.9-0.1c-0.1,0.2-0.1,0.4-0.2,0.6
			c-0.2,0.6-0.4,1.2-0.5,1.8c0.1,0,0.3,0,0.4-0.1c0.2,0,0.5-0.1,0.7-0.1C69.6,72,69.6,72.3,69.6,72.7z"/>
		<path class="st4" d="M72.6,71.3c-0.1,0.2-0.1,0.4-0.2,0.5c-0.2,0.3-0.5,0.7-0.9,0.9c-0.2,0.1-0.4,0.2-0.7,0.2
			c-0.2,0-0.4,0-0.5-0.2c-0.1-0.1-0.1-0.1-0.2-0.2c0-0.1-0.1-0.1-0.1-0.2c-0.1-0.1-0.1-0.4,0-0.6c0-0.1,0-0.2,0.1-0.3
			c0.1-0.4,0.3-0.8,0.6-1.1c0.2-0.2,0.8-0.5,1.1-0.6c0.1,0,0.3,0,0.4,0c0.2,0.1,0.5,0.3,0.5,0.5c0.1,0.2,0.1,0.3,0.1,0.5
			C72.7,70.9,72.7,71.1,72.6,71.3z M71.7,71.3c0-0.1,0-0.1,0-0.2c0-0.1,0-0.3,0-0.4c0,0,0-0.1-0.1-0.2c0-0.1-0.1-0.1-0.2-0.1
			c-0.1,0-0.2,0.1-0.3,0.2c-0.1,0.1-0.1,0.2-0.2,0.2c-0.2,0.3-0.3,0.8-0.2,1.1c0.1,0.1,0.1,0.1,0.2,0.1c0.1,0,0.2-0.1,0.3-0.2
			C71.5,71.7,71.7,71.5,71.7,71.3z"/>
		<path class="st4" d="M75.3,72.4c-0.1,0.1-0.2,0.2-0.3,0.3c-0.1,0.1-0.2,0.1-0.3,0.2c-0.2,0.1-0.4,0.1-0.6,0.2c-0.1,0-0.1,0-0.2,0
			c-0.2,0-0.4,0-0.5-0.1c-0.5-0.2-0.6-0.6-0.6-1c0-0.1,0-0.2,0-0.3c0.1-0.5,0.5-0.9,1-1.3c0.1-0.1,0.2-0.2,0.3-0.3
			c0.1-0.1,0.3-0.2,0.4-0.3c0.1-0.1,0.3-0.1,0.5-0.2c0.1,0,0.2,0,0.3,0c0.2,0,0.4,0,0.4,0.1c0.1,0.1,0.1,0.3,0,0.5
			c0,0.1-0.1,0.4-0.1,0.6c-0.3,0.1-0.7,0.1-0.9,0.1c0-0.1,0.1-0.3,0.1-0.4c-0.2,0.1-0.3,0.2-0.5,0.3c-0.2,0.2-0.4,0.3-0.5,0.5
			c-0.1,0.1-0.2,0.2-0.2,0.4c0,0.1,0,0.1,0,0.2c0,0.1,0,0.2,0.1,0.2c0,0.1,0.1,0.1,0.1,0.2c0.1,0,0.1,0.1,0.2,0.1c0.1,0,0.2,0,0.3,0
			c0.1-0.1,0.2-0.2,0.2-0.4c-0.2,0-0.3,0-0.5,0.1c0-0.2,0-0.6,0-0.7c0.2,0,0.5-0.1,0.7-0.1c0.2,0,0.3,0,0.4-0.1c0.2,0,0.2,0,0.4,0
			c0,0.1,0,0.3,0,0.4c0,0.1,0,0.3-0.1,0.4C75.5,72,75.4,72.2,75.3,72.4z"/>
	</g>
</g>
</svg>
